<?xml version="1.0" encoding="UTF-8"?>
<svg width="80px" height="80px" viewBox="0 0 80 80" version="1.1" xmlns="http://www.w3.org/2000/svg" xmlns:xlink="http://www.w3.org/1999/xlink">
    <title>Shape</title>
    <g id="Page-1" stroke="none" stroke-width="1" fill="none" fill-rule="evenodd">
        <g id="line.3.horizontal.decrease.circle.fill" transform="translate(-1410.000000, -621.000000)" fill="#000000" fill-rule="nonzero">
            <g id="Symbols" transform="translate(498.889800, 618.802700)">
                <g id="Regular-S" transform="translate(911.526140, 2.539100)">
                    <path d="M39.40426,78.80859 C44.8079267,78.80859 49.88606,77.7832 54.63866,75.73242 C59.39126,73.68164 63.58236,70.8333333 67.21196,67.1875 C70.8414933,63.5416333 73.6897933,59.3424 75.75686,54.5898 C77.8239267,49.8372 78.85746,44.7753667 78.85746,39.4043 C78.85746,34.0332333 77.8239267,28.9713667 75.75686,24.2187 C73.6897933,19.4661 70.8333267,15.2669 67.18746,11.6211 C63.54166,7.97523333 59.34246,5.12693333 54.58986,3.0762 C49.83726,1.0254 44.7591267,0 39.35546,0 C33.9843933,0 28.92256,1.0254 24.16996,3.0762 C19.41736,5.12693333 15.2343933,7.97523333 11.62106,11.6211 C8.00779333,15.2669 5.16763333,19.4661 3.10058,24.2187 C1.03352667,28.9713667 -8.8817842e-16,34.0332333 -8.8817842e-16,39.4043 C-8.8817842e-16,44.7753667 1.03352667,49.8372 3.10058,54.5898 C5.16763333,59.3424 8.01592667,63.5416333 11.64546,67.1875 C15.27506,70.8333333 19.46616,73.68164 24.21876,75.73242 C28.97136,77.7832 34.0331933,78.80859 39.40426,78.80859 Z M18.06636,31.9824 C17.0898267,31.9824 16.2760267,31.6975667 15.62496,31.1279 C14.97396,30.5582333 14.64846,29.8014 14.64846,28.8574 C14.64846,27.8808667 14.97396,27.0996333 15.62496,26.5137 C16.2760267,25.9277667 17.0898267,25.6348 18.06636,25.6348 L60.93746,25.6348 C61.9465933,25.6348 62.76856,25.9277667 63.40336,26.5137 C64.0380933,27.0996333 64.35546,27.8808667 64.35546,28.8574 C64.35546,29.8014 64.0380933,30.5582333 63.40336,31.1279 C62.76856,31.6975667 61.9465933,31.9824 60.93746,31.9824 L18.06636,31.9824 Z M24.02346,45.2148 C23.0143267,45.2148 22.1923933,44.9218333 21.55766,44.3359 C20.92286,43.7499667 20.60546,42.9687333 20.60546,41.9922 C20.60546,41.0156 20.92286,40.2424667 21.55766,39.6728 C22.1923933,39.1032 23.0143267,38.8184 24.02346,38.8184 L55.02926,38.8184 C56.0383933,38.8184 56.86036,39.1032 57.49516,39.6728 C58.1298933,40.2424667 58.44726,41.0156 58.44726,41.9922 C58.44726,42.9687333 58.1298933,43.7499667 57.49516,44.3359 C56.86036,44.9218333 56.0383933,45.2148 55.02926,45.2148 L24.02346,45.2148 Z M30.17576,58.3496 C29.1666267,58.3496 28.3446933,58.0566333 27.70996,57.4707 C27.0752267,56.8847667 26.75786,56.1198 26.75786,55.1758 C26.75786,54.2318 27.0752267,53.4668333 27.70996,52.8809 C28.3446933,52.2949667 29.1666267,52.002 30.17576,52.002 L48.82816,52.002 C49.8372267,52.002 50.65916,52.2949667 51.29396,52.8809 C51.9286933,53.4668333 52.24606,54.2318 52.24606,55.1758 C52.24606,56.1198 51.9286933,56.8847667 51.29396,57.4707 C50.65916,58.0566333 49.8372267,58.3496 48.82816,58.3496 L30.17576,58.3496 Z" id="Shape"></path>
                </g>
            </g>
        </g>
    </g>
</svg>