<?xml version="1.0" standalone="no"?>
<!DOCTYPE svg PUBLIC "-//W3C//DTD SVG 20010904//EN"
 "http://www.w3.org/TR/2001/REC-SVG-20010904/DTD/svg10.dtd">
<svg version="1.0" xmlns="http://www.w3.org/2000/svg"
 width="1024.000000pt" height="1024.000000pt" viewBox="0 0 1024.000000 1024.000000"
 preserveAspectRatio="xMidYMid meet">
<metadata>
Created by potrace 1.14, written by Peter Selinger 2001-2017
</metadata>
<g transform="translate(0.000000,1024.000000) scale(0.100000,-0.100000)"
fill="#000000" stroke="none">
<path d="M4752 9561 c3 -15 -7 -18 -101 -25 -36 -2 -75 -8 -85 -12 -15 -6 -17
-4 -11 7 7 11 6 12 -6 2 -8 -6 -37 -15 -64 -18 -28 -4 -61 -9 -75 -11 -42 -8
-93 -15 -125 -17 -16 -1 -32 -5 -35 -9 -3 -3 -21 -9 -40 -11 -19 -3 -35 -6
-35 -7 0 -1 -11 -4 -25 -6 -31 -5 -65 -12 -65 -14 0 -1 -10 -3 -22 -6 -50 -9
-59 -11 -74 -18 -9 -4 -27 -8 -40 -10 -13 -2 -32 -7 -41 -11 -10 -4 -29 -8
-42 -9 -13 0 -22 -4 -19 -8 2 -5 -5 -8 -17 -8 -12 0 -29 -4 -39 -10 -10 -5
-29 -11 -42 -14 -13 -3 -80 -25 -149 -50 -68 -24 -128 -42 -134 -39 -5 3 -6 1
-3 -4 4 -6 -4 -14 -17 -17 -13 -3 -46 -16 -73 -28 -26 -12 -52 -22 -58 -22 -5
-1 -12 -4 -15 -7 -6 -7 -140 -70 -155 -72 -5 -1 -12 -5 -15 -8 -9 -12 -90 -49
-90 -42 0 4 -7 -2 -15 -13 -8 -10 -15 -14 -15 -9 0 7 -3 7 -8 0 -13 -18 -53
-36 -65 -29 -7 4 -9 4 -5 -1 11 -11 -50 -47 -65 -39 -7 4 -9 4 -5 -1 11 -11
-29 -38 -44 -29 -7 5 -8 3 -3 -6 6 -10 4 -12 -9 -7 -10 4 -15 3 -11 -3 3 -6
-1 -10 -9 -10 -9 0 -16 -4 -16 -8 0 -12 -56 -42 -65 -34 -5 4 -5 2 -2 -4 8
-14 -20 -27 -35 -17 -6 3 -8 2 -5 -4 6 -9 -25 -38 -37 -34 -4 1 -16 -8 -29
-19 -12 -12 -41 -34 -64 -49 -24 -16 -57 -40 -75 -54 -18 -14 -73 -57 -123
-96 -49 -38 -93 -67 -99 -64 -5 3 -6 1 -3 -4 4 -6 0 -16 -8 -23 -8 -7 -15 -9
-15 -4 0 5 -7 -2 -16 -14 -8 -12 -21 -19 -27 -16 -7 4 -9 4 -5 -1 11 -11 -50
-68 -63 -59 -7 4 -9 3 -6 -3 7 -11 -118 -135 -127 -126 -3 4 -6 -1 -6 -11 0
-9 -4 -14 -10 -11 -5 3 -10 1 -10 -4 0 -14 -131 -147 -141 -143 -5 1 -8 -2 -7
-7 3 -9 -49 -74 -112 -140 -14 -15 -45 -54 -69 -86 -25 -33 -56 -72 -70 -86
-14 -14 -27 -32 -29 -39 -2 -8 -12 -21 -23 -31 -10 -9 -19 -21 -19 -27 0 -6
-3 -12 -7 -14 -5 -1 -16 -16 -25 -33 -10 -16 -22 -29 -28 -27 -7 1 -9 -2 -6
-7 6 -10 -82 -146 -94 -146 -5 0 -12 -4 -17 -9 -5 -5 -3 -6 5 -2 18 11 15 1
-17 -48 -15 -25 -31 -42 -36 -38 -4 4 -5 -2 -3 -13 2 -13 -2 -19 -10 -17 -8 1
-11 -2 -7 -8 8 -14 -26 -70 -38 -63 -6 3 -7 1 -3 -5 6 -10 -9 -47 -24 -62 -9
-8 -60 -118 -60 -128 0 -5 -12 -22 -27 -37 -16 -16 -23 -25 -16 -21 15 9 -35
-106 -50 -116 -7 -4 -12 -13 -12 -20 0 -25 -27 -88 -36 -88 -6 0 -8 -4 -5 -8
3 -5 -2 -22 -10 -38 -9 -16 -15 -30 -14 -32 1 -2 -33 -99 -47 -132 -8 -18 -10
-27 -12 -41 0 -5 -5 -7 -11 -4 -6 3 -7 -1 -4 -9 3 -9 3 -24 -1 -33 -5 -10 -9
-22 -11 -28 -1 -5 -8 -23 -15 -40 -15 -37 -16 -40 -18 -66 -1 -12 -5 -17 -13
-13 -7 4 -8 3 -4 -4 6 -10 -30 -164 -52 -222 -3 -8 -4 -21 -3 -28 1 -8 -6 -21
-16 -29 -10 -8 -13 -12 -6 -9 7 4 11 -1 10 -14 -1 -11 -4 -20 -7 -20 -3 0 -6
-19 -7 -42 -2 -23 -6 -44 -10 -47 -5 -3 -9 -19 -10 -36 -4 -62 -7 -75 -20 -71
-7 3 -15 1 -18 -5 -4 -5 -1 -8 6 -7 7 2 15 -5 17 -16 2 -11 0 -16 -6 -12 -6 3
-14 2 -17 -4 -4 -6 -1 -9 7 -8 16 4 12 -50 -5 -71 -10 -12 -9 -13 2 -6 10 6
12 4 7 -4 -4 -7 -10 -38 -13 -69 -2 -31 -9 -62 -14 -69 -6 -6 -6 -13 -2 -16 4
-3 6 -28 5 -56 -3 -39 -8 -51 -20 -52 -11 0 -12 -2 -4 -6 7 -3 12 -24 12 -54
0 -37 -3 -48 -12 -43 -10 6 -10 4 0 -7 16 -17 16 -32 0 -23 -10 6 -10 4 0 -8
10 -13 10 -17 0 -21 -10 -4 -10 -7 1 -15 7 -5 10 -15 6 -22 -7 -11 -11 -281
-5 -305 7 -26 0 -47 -13 -39 -7 5 -4 1 7 -9 15 -14 17 -20 7 -26 -8 -5 -9 -11
-3 -15 14 -9 8 -72 -7 -68 -7 1 -10 -2 -6 -8 3 -6 11 -8 16 -5 5 4 9 -9 10
-27 0 -18 3 -50 5 -71 3 -24 1 -36 -5 -33 -5 4 -13 1 -17 -5 -4 -7 -3 -9 3 -6
6 4 16 0 23 -8 10 -12 10 -15 -1 -15 -10 0 -10 -3 -1 -12 16 -16 16 -51 0 -43
-7 4 -5 0 4 -8 13 -10 15 -16 6 -25 -8 -8 -8 -12 -1 -12 5 0 9 -16 8 -35 -1
-19 1 -35 5 -35 3 0 7 -10 7 -22 1 -13 5 -41 9 -63 4 -22 7 -55 8 -72 0 -18 4
-33 9 -33 5 0 5 -9 2 -20 -4 -12 -2 -20 6 -20 8 0 8 -5 -2 -17 -8 -9 -9 -14
-3 -10 7 4 14 -2 17 -13 3 -13 1 -18 -6 -14 -8 5 -7 2 0 -7 17 -17 17 -32 1
-24 -7 4 -5 0 4 -8 21 -16 24 -73 6 -81 -7 -3 -5 -4 6 -3 12 1 20 -5 22 -18 2
-11 5 -30 7 -42 2 -12 6 -26 10 -29 12 -12 8 -26 -5 -18 -10 6 -10 5 -2 -7 16
-19 44 -116 37 -123 -4 -3 -2 -6 3 -6 5 0 15 -21 22 -48 8 -26 18 -55 23 -65
10 -19 3 -41 -11 -32 -5 3 -11 1 -14 -4 -3 -4 4 -8 17 -7 15 1 22 -4 21 -17
-1 -9 2 -17 7 -17 11 0 40 -100 32 -113 -3 -5 -1 -7 4 -4 6 4 21 -21 36 -61
14 -37 33 -85 43 -107 10 -22 17 -46 15 -52 -1 -7 2 -13 7 -13 5 0 14 -11 20
-24 8 -19 8 -26 -1 -30 -7 -2 -4 -5 6 -5 10 -1 16 -5 12 -10 -3 -5 0 -13 6
-16 5 -4 8 -13 5 -20 -2 -7 2 -16 11 -19 10 -4 14 -15 11 -30 -3 -15 -1 -23 6
-20 13 5 79 -123 70 -137 -3 -5 0 -8 8 -7 7 2 12 -3 10 -9 -1 -7 3 -13 9 -13
5 0 7 -4 4 -10 -3 -5 -1 -10 4 -10 6 0 11 -7 11 -15 0 -8 4 -15 9 -15 9 0 26
-48 22 -63 -1 -5 3 -6 8 -3 9 6 65 -86 61 -100 -1 -4 5 -11 14 -16 9 -5 14
-13 11 -19 -4 -5 2 -9 12 -10 16 0 16 -1 -2 -9 -19 -8 -19 -9 3 -9 12 -1 22
-5 22 -11 0 -5 0 -12 0 -15 0 -3 8 -14 18 -24 37 -42 44 -53 46 -75 0 -13 6
-22 12 -19 12 4 47 -43 47 -64 0 -7 7 -13 15 -13 9 0 13 -3 9 -6 -3 -3 4 -16
16 -29 53 -55 59 -66 45 -83 -12 -15 -11 -16 4 -4 14 11 18 10 29 -10 7 -13
19 -28 27 -34 10 -7 13 -20 9 -35 -6 -23 -5 -23 8 -5 8 11 15 15 15 10 0 -6 9
-20 20 -32 17 -18 19 -26 10 -44 -10 -21 -10 -21 3 -6 16 20 27 23 27 8 0 -6
12 -23 28 -37 15 -14 26 -29 25 -34 -2 -5 7 -14 20 -20 28 -15 47 -41 40 -53
-4 -5 -2 -6 4 -3 11 7 45 -28 36 -37 -4 -3 -1 -6 6 -6 7 0 19 -7 27 -15 12
-12 12 -15 2 -15 -7 0 2 -8 19 -16 18 -9 33 -22 33 -30 0 -7 9 -16 20 -19 11
-3 20 -14 20 -22 0 -9 3 -13 7 -10 3 4 32 -17 62 -47 117 -112 141 -133 147
-127 4 3 4 0 0 -6 -4 -8 -1 -13 8 -13 9 0 21 -9 28 -20 7 -11 18 -20 25 -20
19 0 27 -21 12 -32 -10 -6 -7 -7 9 -3 29 9 72 -27 65 -54 -3 -11 2 -21 13 -25
14 -5 15 -4 4 9 -7 9 -10 18 -7 21 4 5 18 -4 61 -41 6 -5 25 -17 41 -27 17 -9
35 -26 41 -38 8 -15 13 -18 17 -8 3 8 8 4 15 -12 6 -14 11 -19 11 -12 1 7 6
10 11 7 6 -4 7 -11 4 -17 -4 -7 -2 -8 4 -4 17 10 53 -30 46 -51 -5 -15 -4 -15
4 -3 6 8 8 18 5 23 -3 5 11 -2 31 -15 37 -24 43 -37 25 -55 -8 -8 -7 -13 2
-18 7 -5 10 -4 6 1 -3 5 1 18 9 29 8 10 14 14 14 9 0 -6 20 -21 45 -33 25 -12
49 -30 55 -39 5 -9 10 -13 10 -9 0 11 120 -55 120 -66 0 -4 4 -6 9 -3 5 3 21
-7 37 -22 15 -15 24 -21 20 -14 -4 7 17 0 48 -15 30 -14 52 -31 49 -36 -3 -6
-1 -7 5 -4 17 11 44 -4 39 -23 -2 -9 1 -17 8 -17 7 0 11 6 8 14 -4 9 0 11 11
7 9 -3 13 -11 9 -17 -4 -6 0 -8 10 -4 9 3 19 2 22 -4 4 -5 11 -7 16 -4 5 4 12
-1 15 -9 3 -9 10 -14 14 -11 4 2 26 -5 49 -16 45 -21 90 -41 106 -45 41 -10
85 -36 79 -47 -5 -9 -4 -9 6 0 11 10 18 9 34 -5 11 -9 16 -11 12 -5 -5 9 -2
11 8 7 9 -3 16 -14 17 -23 0 -9 3 -11 5 -5 3 6 16 9 30 6 21 -4 23 -7 12 -20
-11 -13 -10 -14 8 -4 12 6 24 9 27 6 3 -3 11 -7 19 -8 7 -2 20 -6 28 -9 8 -3
28 -8 43 -11 15 -4 26 -10 23 -14 -2 -4 9 -8 25 -9 48 -3 59 -6 59 -15 0 -4
-5 -8 -12 -8 -6 0 -8 -3 -5 -6 4 -4 13 -1 22 6 21 17 31 5 14 -17 -13 -16 -13
-16 10 0 17 11 29 13 41 7 10 -5 20 -6 24 -3 3 3 6 1 6 -5 0 -6 7 -9 17 -5 10
4 14 2 10 -4 -5 -7 0 -9 14 -6 12 4 25 0 30 -8 7 -12 9 -12 9 1 1 11 4 10 15
-4 11 -15 15 -16 16 -5 0 8 4 6 9 -6 5 -11 9 -14 9 -7 1 19 31 14 31 -5 0 -11
3 -14 8 -8 10 15 31 12 42 -5 6 -9 10 -10 10 -3 0 6 9 11 20 10 17 -1 18 -3 5
-17 -13 -15 -13 -17 0 -17 8 0 12 4 10 8 -3 4 1 9 8 11 17 7 97 -3 97 -11 0
-4 10 -8 23 -8 77 -5 122 -13 119 -22 -1 -6 2 -11 8 -11 5 0 10 5 10 11 0 5 3
8 8 6 4 -3 36 -8 72 -11 93 -10 96 -10 116 -26 13 -11 16 -11 10 -2 -7 11 4
13 55 8 35 -4 84 -8 109 -9 25 -1 51 -6 58 -10 7 -5 12 -4 12 3 0 8 6 8 20 0
14 -8 20 -8 20 0 0 6 5 8 11 4 7 -4 79 -6 161 -6 81 0 146 -2 144 -6 -3 -5 5
-9 17 -9 17 -2 19 0 7 7 -16 10 -16 10 18 14 14 2 22 -3 23 -13 0 -14 1 -14 7
-1 9 19 96 25 89 7 -3 -7 3 -13 14 -13 14 0 16 3 6 15 -10 12 -9 14 6 8 9 -3
17 -3 17 1 0 4 9 8 20 8 11 0 20 -5 20 -11 0 -5 4 -4 8 2 5 8 38 14 90 15 45
2 82 5 82 8 0 3 12 7 28 8 15 1 38 4 50 7 19 3 23 1 18 -13 -5 -15 -4 -15 8 1
16 21 76 34 76 18 0 -6 4 -11 10 -11 5 0 7 6 4 14 -4 11 1 14 20 12 15 -2 29
0 31 4 3 5 16 7 30 5 14 -1 25 2 25 7 0 5 10 4 21 -3 12 -6 19 -7 15 -1 -3 5
1 13 10 16 10 4 13 2 8 -7 -5 -8 -2 -7 9 2 9 7 17 10 17 6 0 -4 7 -2 15 5 18
15 32 6 19 -13 -5 -7 -2 -5 7 5 9 9 19 14 23 11 3 -4 6 -1 6 6 0 8 8 11 20 8
11 -3 20 -1 20 5 0 6 11 7 27 3 16 -4 24 -3 20 1 -4 4 12 13 35 19 24 6 54 15
67 19 21 7 23 6 17 -10 -6 -18 -5 -18 7 -2 8 10 17 15 20 11 4 -3 7 -1 7 6 0
8 8 11 20 8 13 -3 18 -1 13 6 -4 6 0 8 10 4 10 -4 17 -1 17 6 0 8 4 6 10 -3 8
-13 10 -12 10 4 0 11 3 16 6 13 4 -3 15 -2 26 4 14 7 23 7 34 -2 8 -6 17 -9
21 -5 3 3 1 6 -5 6 -7 0 -12 5 -12 10 0 6 3 9 8 8 12 -2 66 14 79 24 6 5 27
10 46 11 22 1 33 6 30 14 -3 7 5 10 21 9 14 -2 23 0 21 4 -5 7 74 37 88 32 4
-1 7 2 7 8 0 5 4 10 10 10 5 0 7 -8 4 -18 -4 -13 -2 -12 7 3 17 27 29 34 47
27 9 -3 13 -1 9 5 -10 16 38 34 53 20 10 -9 11 -9 6 0 -6 10 74 56 114 65 8 2
21 9 29 16 11 11 15 11 22 1 4 -7 5 -18 1 -24 -3 -5 2 -4 11 4 18 15 23 26 7
16 -6 -3 -10 0 -10 8 0 7 11 19 25 25 34 16 35 15 30 -9 -3 -12 -1 -18 3 -15
4 4 7 16 7 27 0 10 2 18 5 17 3 -2 19 7 36 19 17 12 37 23 44 25 8 2 22 10 31
18 10 8 47 30 82 48 36 18 70 39 77 47 7 8 16 12 21 9 5 -3 9 0 9 6 0 6 5 8
10 5 6 -3 10 -2 10 4 0 6 18 20 39 30 21 11 45 26 52 33 8 8 35 27 61 43 27
17 48 34 48 38 0 5 5 5 10 2 6 -3 10 -1 10 6 0 7 3 10 6 6 3 -3 17 4 30 16 39
37 54 48 54 41 0 -4 10 5 21 20 12 15 24 25 27 22 3 -3 12 3 20 15 8 11 20 18
28 15 8 -3 13 -1 11 3 -4 14 54 63 69 57 7 -3 11 0 8 8 -7 18 71 77 93 70 14
-4 15 -4 4 4 -14 10 -6 36 9 27 4 -3 11 2 14 11 3 8 11 12 17 8 7 -4 9 -3 6 3
-6 10 45 66 58 63 4 -1 10 2 13 6 4 4 0 4 -8 -1 -8 -4 3 10 25 32 22 22 43 38
48 36 4 -2 7 0 7 5 0 19 90 103 102 96 7 -4 8 -3 4 5 -10 15 13 43 27 34 6 -3
7 -1 3 6 -4 6 0 14 8 17 9 3 16 11 16 18 0 6 20 30 45 54 24 23 42 42 39 42
-7 0 81 105 114 137 13 13 20 23 17 23 -8 0 12 25 55 68 19 20 28 32 20 27
-11 -6 -10 -3 3 12 9 11 17 25 17 31 0 7 5 12 11 12 5 0 7 -5 3 -12 -4 -7 -3
-8 5 -4 6 4 9 11 6 15 -7 12 54 103 64 97 5 -3 8 2 7 11 0 10 4 18 11 18 6 0
15 4 20 9 5 5 3 6 -4 2 -7 -4 -13 -5 -13 -2 0 7 62 106 67 106 2 0 1 -5 -3
-12 -4 -7 -3 -8 5 -4 6 4 8 12 5 18 -4 6 1 17 11 25 11 7 16 13 13 13 -4 0 7
24 23 52 16 29 35 65 42 80 6 16 15 28 19 28 4 0 8 7 8 16 0 9 6 14 13 11 8
-3 14 1 14 9 0 7 -4 11 -8 8 -4 -2 -1 10 8 27 15 30 17 31 30 14 7 -11 13 -14
13 -8 0 7 -4 15 -10 18 -20 12 -9 25 16 21 15 -3 23 -2 19 2 -3 4 -12 7 -18 7
-7 0 -12 7 -12 15 0 8 8 14 18 14 9 -1 17 2 17 7 0 5 -4 9 -10 9 -10 0 30 93
43 98 4 2 5 8 1 13 -3 5 0 9 5 9 6 0 11 8 11 18 0 10 6 26 14 37 7 11 14 25
15 30 3 24 13 45 22 45 5 0 8 3 7 8 -2 4 3 26 11 50 9 27 19 41 27 38 8 -3 16
-1 19 5 4 5 3 9 -2 8 -21 -4 -22 4 -7 38 8 21 17 47 20 57 2 11 7 22 12 25 4
3 7 13 7 21 -2 25 6 32 23 18 14 -10 15 -10 5 2 -7 8 -13 20 -13 28 0 12 3 12
18 1 15 -13 16 -12 4 3 -13 17 -9 45 15 108 4 8 5 18 5 23 -1 4 3 7 9 7 5 0 8
4 5 9 -3 5 2 33 10 62 9 30 18 64 20 76 2 12 9 35 15 50 7 16 13 42 15 58 2
17 7 37 10 45 4 8 8 30 10 49 2 19 7 37 11 40 4 3 9 20 10 36 4 54 7 75 13 75
3 0 5 10 6 23 0 12 4 45 8 72 4 28 8 60 10 73 1 13 8 27 16 32 10 7 11 10 3
10 -7 0 -13 9 -13 20 0 18 11 25 33 21 5 -1 6 3 2 9 -3 6 -10 8 -15 5 -13 -8
-17 17 -9 55 10 45 21 184 19 234 -1 36 0 38 17 25 16 -12 17 -12 6 2 -16 20
-23 477 -8 483 6 3 4 5 -2 5 -19 1 -16 31 5 55 16 20 16 20 0 7 -15 -11 -18
-11 -18 0 -1 8 -3 38 -6 67 -4 39 -2 52 8 52 10 0 10 2 -1 9 -8 5 -14 27 -15
55 -1 25 -4 46 -7 46 -5 0 -11 56 -13 127 -1 17 -4 29 -7 27 -4 -2 -7 7 -7 21
1 15 5 22 12 19 6 -3 4 0 -5 8 -9 7 -15 25 -15 41 1 15 -2 27 -6 27 -4 0 -8 5
-8 11 0 5 6 7 13 3 9 -6 9 -5 1 7 -10 11 -30 89 -38 146 -1 7 -5 16 -9 19 -11
12 -8 42 6 47 7 3 4 6 -7 6 -13 1 -17 6 -13 21 3 10 1 20 -3 22 -5 2 -11 14
-13 28 -2 14 -6 32 -9 40 -11 30 -33 115 -32 130 0 8 -3 17 -6 20 -12 10 -40
112 -33 123 3 6 1 7 -5 3 -8 -5 -12 1 -12 16 0 13 -4 28 -9 34 -5 5 -12 20
-16 33 -5 18 -4 22 6 17 8 -4 6 -1 -4 7 -10 8 -20 24 -22 36 -2 12 -7 27 -12
34 -4 6 -8 14 -8 17 -1 3 -9 22 -18 44 -9 21 -17 40 -17 42 0 5 -60 138 -75
165 -8 14 -11 29 -8 33 4 4 3 10 -3 14 -13 9 -54 80 -54 93 0 6 5 7 12 3 7 -4
8 -3 4 5 -4 6 -11 9 -15 7 -3 -3 -20 21 -36 52 -16 31 -51 94 -77 140 -27 46
-48 88 -48 93 0 5 -4 9 -10 9 -5 0 -10 7 -10 15 0 8 -4 15 -10 15 -5 0 -10 7
-10 15 0 8 -3 15 -8 15 -7 0 -13 10 -42 66 -8 16 -17 31 -20 34 -16 15 -81
110 -74 110 4 0 -2 8 -12 18 -11 9 -39 44 -64 77 -25 33 -48 62 -52 63 -5 2
-8 10 -8 18 0 8 -5 14 -11 14 -6 0 -8 7 -5 16 3 8 2 13 -3 10 -12 -8 -112 114
-104 127 3 5 2 7 -4 4 -6 -4 -21 5 -34 19 -20 21 -21 27 -9 35 13 9 12 10 -2
6 -19 -7 -182 158 -173 173 4 6 -1 10 -10 10 -8 0 -49 33 -90 73 -41 39 -94
88 -116 107 -98 82 -119 103 -113 111 3 5 -1 7 -8 4 -7 -3 -24 5 -38 18 -14
12 -40 33 -58 46 -19 13 -29 27 -26 34 4 7 4 9 -1 5 -7 -6 -108 57 -142 88 -6
6 -34 25 -62 43 -28 18 -51 37 -51 42 0 5 -3 8 -7 7 -10 -2 -46 13 -53 22 -3
4 -52 35 -110 70 -58 35 -109 70 -113 77 -5 7 -12 11 -16 8 -7 -4 -145 61
-174 83 -7 4 -32 17 -57 27 -25 11 -48 24 -52 30 -4 5 -8 6 -8 2 0 -9 -61 22
-71 36 -3 5 -9 8 -13 8 -25 -4 -36 0 -30 11 4 7 3 8 -4 4 -6 -4 -31 2 -54 12
-24 11 -71 30 -105 42 -35 12 -60 26 -58 31 3 4 0 11 -6 15 -8 4 -9 3 -5 -4 4
-7 4 -12 1 -12 -6 0 -230 73 -265 87 -8 3 -26 7 -40 9 -14 2 -26 8 -28 14 -2
5 -8 8 -13 4 -5 -3 -26 0 -47 7 -20 7 -46 14 -57 15 -11 2 -69 14 -130 29 -60
14 -123 28 -140 29 -27 3 -77 12 -185 31 -19 4 -51 8 -70 10 -104 12 -142 15
-215 21 -44 3 -83 11 -87 17 -6 9 -8 9 -8 1 0 -7 -19 -11 -50 -10 -27 0 -50 5
-50 11 0 6 -3 6 -9 0 -6 -6 -48 -8 -96 -5 -47 3 -97 2 -110 -2 -14 -3 -27 -2
-30 2 -3 5 -11 7 -18 5 -25 -10 -78 -12 -83 -4 -3 5 -13 5 -22 1 -9 -5 -44
-10 -77 -11 -33 -2 -62 -4 -64 -7 -2 -2 -10 4 -18 14 -8 11 -12 12 -11 3z
m613 -3351 c39 -5 81 -12 95 -15 14 -3 36 -8 49 -11 58 -12 222 -79 296 -122
318 -181 537 -484 611 -847 21 -106 25 -293 9 -407 -20 -133 -42 -204 -110
-363 -17 -40 -83 -155 -95 -165 -3 -3 -22 -27 -42 -55 -54 -75 -193 -205 -284
-267 -212 -144 -431 -211 -694 -212 -349 0 -650 127 -894 378 -85 89 -190 238
-232 331 -24 55 -80 209 -82 228 0 4 -5 31 -11 60 -21 111 -29 285 -16 375 2
18 7 52 10 75 31 219 162 476 332 650 211 217 483 347 778 373 39 4 71 7 72 8
5 4 145 -6 208 -14z"/>
<path d="M8715 7840 c3 -5 8 -10 11 -10 2 0 4 5 4 10 0 6 -5 10 -11 10 -5 0
-7 -4 -4 -10z"/>
<path d="M8859 7673 c-13 -16 -12 -17 4 -4 9 7 17 15 17 17 0 8 -8 3 -21 -13z"/>
<path d="M9270 6861 c0 -6 4 -13 10 -16 6 -3 7 1 4 9 -7 18 -14 21 -14 7z"/>
<path d="M833 6675 c0 -8 4 -12 9 -9 5 3 6 10 3 15 -9 13 -12 11 -12 -6z"/>
<path d="M790 6436 c7 -7 13 -7 20 0 6 6 3 10 -10 10 -13 0 -16 -4 -10 -10z"/>
<path d="M9645 5160 c-3 -6 1 -7 9 -4 18 7 21 14 7 14 -6 0 -13 -4 -16 -10z"/>
<path d="M570 5086 c0 -2 7 -7 16 -10 8 -3 12 -2 9 4 -6 10 -25 14 -25 6z"/>
<path d="M566 4942 c-3 -5 1 -9 9 -9 8 0 12 4 9 9 -3 4 -7 8 -9 8 -2 0 -6 -4
-9 -8z"/>
<path d="M9673 4805 c0 -8 4 -12 9 -9 5 3 6 10 3 15 -9 13 -12 11 -12 -6z"/>
<path d="M556 4793 c-6 -14 -5 -15 5 -6 7 7 10 15 7 18 -3 3 -9 -2 -12 -12z"/>
<path d="M515 4721 c-3 -5 -2 -12 3 -15 5 -3 9 1 9 9 0 17 -3 19 -12 6z"/>
<path d="M9635 4701 c-3 -5 -2 -12 3 -15 5 -3 9 1 9 9 0 17 -3 19 -12 6z"/>
<path d="M596 4687 c3 -10 9 -15 12 -12 3 3 0 11 -7 18 -10 9 -11 8 -5 -6z"/>
<path d="M615 4500 c-3 -5 -1 -10 4 -10 6 0 11 5 11 10 0 6 -2 10 -4 10 -3 0
-8 -4 -11 -10z"/>
<path d="M636 4193 c-6 -14 -5 -15 5 -6 7 7 10 15 7 18 -3 3 -9 -2 -12 -12z"/>
<path d="M670 4139 c0 -5 5 -7 10 -4 6 3 10 8 10 11 0 2 -4 4 -10 4 -5 0 -10
-5 -10 -11z"/>
<path d="M9534 3976 c1 -8 5 -18 8 -22 4 -3 5 1 4 10 -1 8 -5 18 -8 22 -4 3
-5 -1 -4 -10z"/>
<path d="M9486 3858 c3 -5 10 -6 15 -3 13 9 11 12 -6 12 -8 0 -12 -4 -9 -9z"/>
<path d="M9453 3711 c0 -11 5 -18 9 -15 4 3 5 11 1 19 -7 21 -12 19 -10 -4z"/>
<path d="M720 3680 c-9 -6 -10 -10 -3 -10 6 0 15 5 18 10 8 12 4 12 -15 0z"/>
<path d="M850 3560 c0 -5 5 -10 11 -10 5 0 7 5 4 10 -3 6 -8 10 -11 10 -2 0
-4 -4 -4 -10z"/>
<path d="M856 3518 c3 -5 10 -6 15 -3 13 9 11 12 -6 12 -8 0 -12 -4 -9 -9z"/>
<path d="M9366 3498 c3 -5 10 -6 15 -3 13 9 11 12 -6 12 -8 0 -12 -4 -9 -9z"/>
<path d="M900 3406 c0 -2 8 -10 18 -17 15 -13 16 -12 3 4 -13 16 -21 21 -21
13z"/>
<path d="M916 3362 c-3 -5 1 -9 9 -9 8 0 12 4 9 9 -3 4 -7 8 -9 8 -2 0 -6 -4
-9 -8z"/>
<path d="M935 3260 c-3 -5 -1 -10 4 -10 6 0 11 5 11 10 0 6 -2 10 -4 10 -3 0
-8 -4 -11 -10z"/>
<path d="M9306 3238 c3 -5 10 -6 15 -3 13 9 11 12 -6 12 -8 0 -12 -4 -9 -9z"/>
<path d="M910 3216 c0 -2 8 -10 18 -17 15 -13 16 -12 3 4 -13 16 -21 21 -21
13z"/>
<path d="M993 3195 c0 -8 4 -12 9 -9 5 3 6 10 3 15 -9 13 -12 11 -12 -6z"/>
<path d="M995 3140 c3 -5 8 -10 11 -10 2 0 4 5 4 10 0 6 -5 10 -11 10 -5 0 -7
-4 -4 -10z"/>
<path d="M9256 3142 c-3 -5 1 -9 9 -9 8 0 12 4 9 9 -3 4 -7 8 -9 8 -2 0 -6 -4
-9 -8z"/>
<path d="M989 3083 c-13 -16 -12 -17 4 -4 9 7 17 15 17 17 0 8 -8 3 -21 -13z"/>
<path d="M9195 3091 c-3 -5 -2 -12 3 -15 5 -3 9 1 9 9 0 17 -3 19 -12 6z"/>
<path d="M1155 2811 c-3 -5 -2 -12 3 -15 5 -3 9 1 9 9 0 17 -3 19 -12 6z"/>
<path d="M9053 2805 c0 -8 4 -12 9 -9 5 3 6 10 3 15 -9 13 -12 11 -12 -6z"/>
<path d="M1195 2791 c-3 -5 -2 -12 3 -15 5 -3 9 1 9 9 0 17 -3 19 -12 6z"/>
<path d="M9026 2758 c3 -5 10 -6 15 -3 13 9 11 12 -6 12 -8 0 -12 -4 -9 -9z"/>
<path d="M1226 2738 c3 -4 9 -8 15 -8 5 0 9 4 9 8 0 5 -7 9 -15 9 -8 0 -12 -4
-9 -9z"/>
<path d="M9010 2700 c0 -5 5 -10 11 -10 5 0 7 5 4 10 -3 6 -8 10 -11 10 -2 0
-4 -4 -4 -10z"/>
<path d="M8940 2626 c0 -2 8 -10 18 -17 15 -13 16 -12 3 4 -13 16 -21 21 -21
13z"/>
<path d="M1295 2580 c-2 -3 5 -6 15 -7 11 -1 22 2 24 5 3 4 -4 8 -15 8 -11 0
-22 -3 -24 -6z"/>
<path d="M8890 2520 c0 -5 5 -10 11 -10 5 0 7 5 4 10 -3 6 -8 10 -11 10 -2 0
-4 -4 -4 -10z"/>
<path d="M8835 2491 c-3 -5 -2 -12 3 -15 5 -3 9 1 9 9 0 17 -3 19 -12 6z"/>
<path d="M1370 2459 c0 -5 5 -7 10 -4 6 3 10 8 10 11 0 2 -4 4 -10 4 -5 0 -10
-5 -10 -11z"/>
<path d="M1415 2440 c-3 -6 1 -7 9 -4 18 7 21 14 7 14 -6 0 -13 -4 -16 -10z"/>
<path d="M8826 2438 c3 -4 9 -8 15 -8 5 0 9 4 9 8 0 5 -7 9 -15 9 -8 0 -12 -4
-9 -9z"/>
<path d="M1440 2400 c-9 -6 -10 -10 -3 -10 6 0 15 5 18 10 8 12 4 12 -15 0z"/>
<path d="M8790 2316 c0 -2 8 -10 18 -17 15 -13 16 -12 3 4 -13 16 -21 21 -21
13z"/>
<path d="M1526 2278 c3 -5 10 -6 15 -3 13 9 11 12 -6 12 -8 0 -12 -4 -9 -9z"/>
<path d="M1574 2236 c1 -8 5 -18 8 -22 4 -3 5 1 4 10 -1 8 -5 18 -8 22 -4 3
-5 -1 -4 -10z"/>
<path d="M8680 2240 c-9 -6 -10 -10 -3 -10 6 0 15 5 18 10 8 12 4 12 -15 0z"/>
<path d="M8646 2182 c-3 -5 1 -9 9 -9 8 0 12 4 9 9 -3 4 -7 8 -9 8 -2 0 -6 -4
-9 -8z"/>
<path d="M8589 2163 c-13 -16 -12 -17 4 -4 16 13 21 21 13 21 -2 0 -10 -8 -17
-17z"/>
<path d="M1616 2142 c-3 -5 1 -9 9 -9 8 0 12 4 9 9 -3 4 -7 8 -9 8 -2 0 -6 -4
-9 -8z"/>
<path d="M1694 2082 c4 -3 14 -7 22 -8 9 -1 13 0 10 4 -4 3 -14 7 -22 8 -9 1
-13 0 -10 -4z"/>
<path d="M1794 1985 c0 -13 3 -22 7 -19 8 4 6 30 -2 38 -3 3 -5 -5 -5 -19z"/>
<path d="M8490 2000 c0 -5 5 -10 11 -10 5 0 7 5 4 10 -3 6 -8 10 -11 10 -2 0
-4 -4 -4 -10z"/>
<path d="M8430 1977 c0 -2 6 -10 14 -16 11 -9 16 -9 22 1 4 7 4 10 -1 6 -4 -4
-14 -3 -22 3 -7 6 -13 9 -13 6z"/>
<path d="M8380 1926 c0 -2 8 -10 18 -17 15 -13 16 -12 3 4 -13 16 -21 21 -21
13z"/>
<path d="M8356 1895 c-9 -26 -7 -32 5 -12 6 10 9 21 6 23 -2 3 -7 -2 -11 -11z"/>
<path d="M1855 1880 c3 -5 8 -10 11 -10 2 0 4 5 4 10 0 6 -5 10 -11 10 -5 0
-7 -4 -4 -10z"/>
<path d="M1875 1851 c-3 -5 -2 -12 3 -15 5 -3 9 1 9 9 0 17 -3 19 -12 6z"/>
<path d="M1953 1815 c0 -8 4 -12 9 -9 5 3 6 10 3 15 -9 13 -12 11 -12 -6z"/>
<path d="M8310 1821 c0 -6 4 -13 10 -16 6 -3 7 1 4 9 -7 18 -14 21 -14 7z"/>
<path d="M8270 1799 c0 -5 5 -7 10 -4 6 3 10 8 10 11 0 2 -4 4 -10 4 -5 0 -10
-5 -10 -11z"/>
<path d="M2030 1745 c0 -5 5 -17 10 -25 5 -8 10 -10 10 -5 0 6 -5 17 -10 25
-5 8 -10 11 -10 5z"/>
<path d="M8226 1738 c3 -5 10 -6 15 -3 13 9 11 12 -6 12 -8 0 -12 -4 -9 -9z"/>
<path d="M2067 1719 c7 -7 15 -10 18 -7 3 3 -2 9 -12 12 -14 6 -15 5 -6 -5z"/>
<path d="M8216 1698 c3 -5 10 -6 15 -3 13 9 11 12 -6 12 -8 0 -12 -4 -9 -9z"/>
<path d="M2094 1689 c-3 -6 -2 -15 3 -20 5 -5 9 -1 9 11 0 23 -2 24 -12 9z"/>
<path d="M8076 1642 c-3 -5 1 -9 9 -9 8 0 12 4 9 9 -3 4 -7 8 -9 8 -2 0 -6 -4
-9 -8z"/>
<path d="M8000 1560 c-9 -6 -10 -10 -3 -10 6 0 15 5 18 10 8 12 4 12 -15 0z"/>
<path d="M8046 1562 c-3 -5 1 -9 9 -9 8 0 12 4 9 9 -3 4 -7 8 -9 8 -2 0 -6 -4
-9 -8z"/>
<path d="M2310 1506 c0 -2 7 -7 16 -10 8 -3 12 -2 9 4 -6 10 -25 14 -25 6z"/>
<path d="M2273 1485 c0 -8 4 -12 9 -9 5 3 6 10 3 15 -9 13 -12 11 -12 -6z"/>
<path d="M7946 1438 c3 -5 10 -6 15 -3 13 9 11 12 -6 12 -8 0 -12 -4 -9 -9z"/>
<path d="M7875 1420 c3 -5 8 -10 11 -10 2 0 4 5 4 10 0 6 -5 10 -11 10 -5 0
-7 -4 -4 -10z"/>
<path d="M2474 1386 c1 -8 5 -18 8 -22 4 -3 5 1 4 10 -1 8 -5 18 -8 22 -4 3
-5 -1 -4 -10z"/>
<path d="M2455 1340 c-3 -5 -1 -10 4 -10 6 0 11 5 11 10 0 6 -2 10 -4 10 -3 0
-8 -4 -11 -10z"/>
<path d="M7669 1323 c-13 -16 -12 -17 4 -4 16 13 21 21 13 21 -2 0 -10 -8 -17
-17z"/>
<path d="M7796 1327 c3 -10 9 -15 12 -12 3 3 0 11 -7 18 -10 9 -11 8 -5 -6z"/>
<path d="M7630 1279 c0 -5 5 -7 10 -4 6 3 10 8 10 11 0 2 -4 4 -10 4 -5 0 -10
-5 -10 -11z"/>
<path d="M2570 1266 c0 -2 7 -7 16 -10 8 -3 12 -2 9 4 -6 10 -25 14 -25 6z"/>
<path d="M7549 1243 c-13 -16 -12 -17 4 -4 16 13 21 21 13 21 -2 0 -10 -8 -17
-17z"/>
<path d="M7570 1219 c0 -5 5 -7 10 -4 6 3 10 8 10 11 0 2 -4 4 -10 4 -5 0 -10
-5 -10 -11z"/>
<path d="M7616 1222 c-3 -5 1 -9 9 -9 8 0 12 4 9 9 -3 4 -7 8 -9 8 -2 0 -6 -4
-9 -8z"/>
<path d="M7535 1209 c-4 -6 -5 -12 -2 -15 2 -3 7 2 10 11 7 17 1 20 -8 4z"/>
<path d="M7475 1199 c-3 -4 2 -6 10 -5 21 3 28 13 10 13 -9 0 -18 -4 -20 -8z"/>
<path d="M2695 1180 c-3 -5 -1 -10 4 -10 6 0 11 5 11 10 0 6 -2 10 -4 10 -3 0
-8 -4 -11 -10z"/>
<path d="M2753 1175 c0 -8 4 -12 9 -9 4 3 8 9 8 15 0 5 -4 9 -8 9 -5 0 -9 -7
-9 -15z"/>
<path d="M7430 1177 c0 -2 6 -10 14 -16 11 -9 16 -9 22 1 4 7 4 10 -1 6 -4 -4
-14 -3 -22 3 -7 6 -13 9 -13 6z"/>
<path d="M2775 1140 c3 -5 8 -10 11 -10 2 0 4 5 4 10 0 6 -5 10 -11 10 -5 0
-7 -4 -4 -10z"/>
<path d="M7427 1139 c7 -7 15 -10 18 -7 3 3 -2 9 -12 12 -14 6 -15 5 -6 -5z"/>
<path d="M7373 1123 c1 -17 4 -19 14 -11 15 12 18 22 4 14 -5 -4 -11 0 -14 6
-3 7 -4 3 -4 -9z"/>
<path d="M2916 1093 c-6 -14 -5 -15 5 -6 7 7 10 15 7 18 -3 3 -9 -2 -12 -12z"/>
<path d="M2935 1081 c-3 -5 -2 -12 3 -15 5 -3 9 1 9 9 0 17 -3 19 -12 6z"/>
<path d="M7273 1084 c8 -9 47 -13 51 -6 2 4 -9 8 -25 8 -17 1 -28 0 -26 -2z"/>
<path d="M2789 1063 c-13 -16 -12 -17 4 -4 16 13 21 21 13 21 -2 0 -10 -8 -17
-17z"/>
<path d="M2895 1060 c-3 -5 -1 -10 4 -10 6 0 11 5 11 10 0 6 -2 10 -4 10 -3 0
-8 -4 -11 -10z"/>
<path d="M2970 1019 c0 -5 5 -7 10 -4 6 3 10 8 10 11 0 2 -4 4 -10 4 -5 0 -10
-5 -10 -11z"/>
<path d="M3055 1009 c-4 -6 -5 -12 -2 -15 2 -3 7 2 10 11 7 17 1 20 -8 4z"/>
<path d="M7195 991 c-3 -5 -2 -12 3 -15 5 -3 9 1 9 9 0 17 -3 19 -12 6z"/>
<path d="M3190 936 c7 -7 13 -7 20 0 6 6 3 10 -10 10 -13 0 -16 -4 -10 -10z"/>
<path d="M6996 941 c-3 -5 2 -15 12 -22 15 -13 16 -12 4 3 -10 13 -10 17 0 21
9 4 9 6 1 6 -6 1 -14 -3 -17 -8z"/>
<path d="M7050 920 c0 -5 5 -10 11 -10 5 0 7 5 4 10 -3 6 -8 10 -11 10 -2 0
-4 -4 -4 -10z"/>
<path d="M3193 905 c0 -8 4 -12 9 -9 5 3 6 10 3 15 -9 13 -12 11 -12 -6z"/>
<path d="M3265 900 c-3 -6 1 -7 9 -4 18 7 21 14 7 14 -6 0 -13 -4 -16 -10z"/>
<path d="M6946 902 c-3 -5 1 -9 9 -9 8 0 12 4 9 9 -3 4 -7 8 -9 8 -2 0 -6 -4
-9 -8z"/>
<path d="M3356 882 c-3 -5 1 -9 9 -9 8 0 12 4 9 9 -3 4 -7 8 -9 8 -2 0 -6 -4
-9 -8z"/>
<path d="M3380 860 c-9 -6 -10 -10 -3 -10 6 0 15 5 18 10 8 12 4 12 -15 0z"/>
<path d="M6926 862 c-3 -5 1 -9 9 -9 8 0 12 4 9 9 -3 4 -7 8 -9 8 -2 0 -6 -4
-9 -8z"/>
<path d="M6766 847 c-16 -12 -16 -14 -3 -14 9 0 18 6 21 14 3 7 4 13 3 13 -2
0 -11 -6 -21 -13z"/>
<path d="M3416 838 c3 -5 10 -6 15 -2 5 3 16 1 23 -5 9 -8 13 -7 13 2 0 8 -12
13 -28 13 -15 0 -26 -3 -23 -8z"/>
<path d="M3370 825 c0 -7 30 -13 34 -7 3 4 -4 9 -15 9 -10 1 -19 0 -19 -2z"/>
<path d="M3490 817 c0 -2 6 -10 14 -16 11 -9 16 -9 22 1 4 7 4 10 -1 6 -4 -4
-14 -3 -22 3 -7 6 -13 9 -13 6z"/>
<path d="M3470 779 c0 -5 5 -7 10 -4 6 3 10 8 10 11 0 2 -4 4 -10 4 -5 0 -10
-5 -10 -11z"/>
<path d="M6716 782 c-3 -5 1 -9 9 -9 8 0 12 4 9 9 -3 4 -7 8 -9 8 -2 0 -6 -4
-9 -8z"/>
<path d="M3509 763 c-13 -16 -12 -17 4 -4 16 13 21 21 13 21 -2 0 -10 -8 -17
-17z"/>
<path d="M6653 765 c0 -8 4 -12 9 -9 5 3 6 10 3 15 -9 13 -12 11 -12 -6z"/>
<path d="M3616 758 c3 -4 11 -5 19 -1 21 7 19 12 -4 10 -11 0 -18 -5 -15 -9z"/>
<path d="M3735 729 c-4 -6 -5 -12 -2 -15 2 -3 7 2 10 11 7 17 1 20 -8 4z"/>
<path d="M6473 723 c1 -14 5 -19 12 -14 5 5 18 7 27 6 10 -2 20 0 23 4 2 4 -8
7 -23 6 -15 -1 -30 3 -34 9 -4 6 -6 1 -5 -11z"/>
<path d="M6555 729 c-4 -6 -5 -12 -2 -15 2 -3 7 2 10 11 7 17 1 20 -8 4z"/>
<path d="M3811 714 c0 -11 3 -14 6 -6 3 7 2 16 -1 19 -3 4 -6 -2 -5 -13z"/>
<path d="M3515 709 c-4 -6 -5 -12 -2 -15 2 -3 7 2 10 11 7 17 1 20 -8 4z"/>
<path d="M3679 693 c-13 -17 -13 -17 6 -3 11 8 22 16 24 17 2 2 0 3 -6 3 -6 0
-17 -8 -24 -17z"/>
<path d="M3886 685 c-11 -8 -15 -15 -9 -15 6 0 16 7 23 15 16 19 11 19 -14 0z"/>
<path d="M6310 689 c0 -5 -4 -8 -8 -5 -5 3 -9 -1 -9 -9 0 -13 4 -12 19 2 21
18 22 23 8 23 -5 0 -10 -5 -10 -11z"/>
<path d="M3817 675 c-4 -8 -3 -16 1 -19 4 -3 9 4 9 15 2 23 -3 25 -10 4z"/>
<path d="M3915 680 c-3 -5 -1 -10 4 -10 6 0 11 5 11 10 0 6 -2 10 -4 10 -3 0
-8 -4 -11 -10z"/>
<path d="M6355 679 c-3 -4 2 -6 10 -5 21 3 28 13 10 13 -9 0 -18 -4 -20 -8z"/>
<path d="M3950 658 c0 -4 4 -8 9 -8 6 0 12 4 15 8 3 5 -1 9 -9 9 -8 0 -15 -4
-15 -9z"/>
<path d="M4015 649 c-4 -6 -5 -12 -2 -15 2 -3 7 2 10 11 7 17 1 20 -8 4z"/>
<path d="M6156 647 c3 -10 9 -15 12 -12 3 3 0 11 -7 18 -10 9 -11 8 -5 -6z"/>
<path d="M3995 611 c-3 -5 -2 -12 3 -15 5 -3 9 1 9 9 0 17 -3 19 -12 6z"/>
<path d="M4253 603 c2 -12 7 -26 12 -30 4 -5 5 -3 1 4 -3 6 4 19 16 27 12 9
17 16 11 16 -7 0 -15 -5 -19 -11 -4 -8 -9 -7 -15 2 -6 10 -8 8 -6 -8z"/>
<path d="M6062 605 c15 -16 20 -17 30 -6 11 11 10 13 0 7 -7 -4 -21 -2 -30 5
-15 12 -15 11 0 -6z"/>
<path d="M4030 606 c0 -2 7 -7 16 -10 8 -3 12 -2 9 4 -6 10 -25 14 -25 6z"/>
<path d="M5935 599 c-11 -16 -1 -19 13 -3 7 8 8 14 3 14 -5 0 -13 -5 -16 -11z"/>
<path d="M5970 598 c0 -6 3 -8 7 -5 3 4 11 2 18 -3 8 -7 12 -6 12 3 0 7 -9 14
-19 14 -10 1 -18 -3 -18 -9z"/>
<path d="M4213 585 c0 -8 4 -12 9 -9 5 3 6 10 3 15 -9 13 -12 11 -12 -6z"/>
<path d="M5815 589 c-4 -6 -5 -12 -2 -15 2 -3 7 2 10 11 7 17 1 20 -8 4z"/>
<path d="M6116 587 c3 -10 9 -15 12 -12 3 3 0 11 -7 18 -10 9 -11 8 -5 -6z"/>
<path d="M4438 569 c12 -14 20 -29 17 -32 -3 -4 -2 -5 2 -2 4 3 8 13 9 21 1 9
0 13 -3 10 -4 -3 -16 2 -27 11 -18 15 -18 14 2 -8z"/>
<path d="M4494 569 c3 -17 33 -20 33 -3 0 10 -4 11 -13 3 -8 -7 -14 -6 -17 1
-3 6 -5 6 -3 -1z"/>
<path d="M5733 566 c0 -8 5 -14 11 -13 6 1 10 -4 8 -11 -1 -8 2 -11 8 -7 8 5
6 13 -6 26 -21 23 -21 23 -21 5z"/>
<path d="M4116 553 c-6 -14 -5 -15 5 -6 7 7 10 15 7 18 -3 3 -9 -2 -12 -12z"/>
<path d="M4570 562 c0 -5 7 -9 15 -9 8 0 12 4 9 9 -3 4 -9 8 -15 8 -5 0 -9 -4
-9 -8z"/>
<path d="M4628 552 c9 -10 19 -17 21 -16 6 5 -20 34 -30 34 -5 0 -1 -8 9 -18z"/>
<path d="M5615 560 c-3 -5 -1 -10 4 -10 6 0 11 5 11 10 0 6 -2 10 -4 10 -3 0
-8 -4 -11 -10z"/>
<path d="M5534 548 c-4 -7 -3 -8 5 -4 6 4 20 2 29 -6 15 -12 16 -11 3 5 -16
20 -27 22 -37 5z"/>
<path d="M5853 545 c0 -8 4 -12 9 -9 5 3 6 10 3 15 -9 13 -12 11 -12 -6z"/>
<path d="M4613 531 c0 -11 5 -18 9 -15 4 3 5 11 1 19 -7 21 -12 19 -10 -4z"/>
<path d="M4750 540 c0 -5 5 -10 10 -10 6 0 10 5 10 10 0 6 -4 10 -10 10 -5 0
-10 -4 -10 -10z"/>
<path d="M4828 543 c6 -2 9 -10 6 -15 -4 -7 -2 -8 5 -4 13 9 5 26 -12 25 -9 0
-8 -2 1 -6z"/>
<path d="M4874 515 c0 -13 3 -22 7 -19 8 4 6 30 -2 38 -3 3 -5 -5 -5 -19z"/>
<path d="M4974 523 c1 -12 6 -26 11 -30 4 -5 5 -3 1 4 -3 6 2 17 11 23 16 10
16 11 1 6 -9 -3 -19 0 -22 7 -2 7 -4 2 -2 -10z"/>
<path d="M5172 531 c-11 -7 -11 -9 0 -14 9 -3 15 1 15 9 0 8 -1 14 -1 14 -1 0
-7 -4 -14 -9z"/>
<path d="M5215 518 c1 -10 4 -20 8 -23 4 -3 5 -2 2 2 -3 3 2 14 10 23 13 14
12 16 -4 16 -10 0 -17 -7 -16 -18z"/>
<path d="M5395 530 c-4 -6 -10 -8 -15 -5 -4 3 -7 -2 -6 -10 1 -8 4 -16 7 -17
2 -2 3 -1 1 1 -1 2 5 13 15 23 9 10 13 18 10 18 -3 0 -9 -5 -12 -10z"/>
<path d="M4575 520 c3 -5 8 -10 11 -10 2 0 4 5 4 10 0 6 -5 10 -11 10 -5 0 -7
-4 -4 -10z"/>
<path d="M4813 511 c0 -11 5 -18 9 -15 4 3 5 11 1 19 -7 21 -12 19 -10 -4z"/>
<path d="M4939 528 c-5 -18 -6 -38 -1 -34 7 8 12 36 6 36 -2 0 -4 -1 -5 -2z"/>
<path d="M5099 513 c-13 -17 -13 -17 6 -3 11 8 22 16 24 17 2 2 0 3 -6 3 -6 0
-17 -8 -24 -17z"/>
<path d="M5670 521 c0 -6 4 -13 10 -16 6 -3 7 1 4 9 -7 18 -14 21 -14 7z"/>
<path d="M4735 511 c-3 -5 -2 -12 3 -15 5 -3 9 1 9 9 0 17 -3 19 -12 6z"/>
<path d="M4775 511 c-3 -5 -2 -12 3 -15 5 -3 9 1 9 9 0 17 -3 19 -12 6z"/>
<path d="M5490 499 c0 -5 5 -7 10 -4 6 3 10 8 10 11 0 2 -4 4 -10 4 -5 0 -10
-5 -10 -11z"/>
<path d="M5613 495 c0 -8 4 -12 9 -9 5 3 6 10 3 15 -9 13 -12 11 -12 -6z"/>
<path d="M4589 483 c-13 -16 -12 -17 4 -4 16 13 21 21 13 21 -2 0 -10 -8 -17
-17z"/>
<path d="M4525 480 c-3 -6 1 -7 9 -4 18 7 21 14 7 14 -6 0 -13 -4 -16 -10z"/>
<path d="M5036 473 c-6 -14 -5 -15 5 -6 7 7 10 15 7 18 -3 3 -9 -2 -12 -12z"/>
<path d="M4420 446 c0 -2 8 -10 18 -17 15 -13 16 -12 3 4 -13 16 -21 21 -21
13z"/>
<path d="M5316 438 c3 -5 10 -6 15 -3 13 9 11 12 -6 12 -8 0 -12 -4 -9 -9z"/>
</g>
</svg>
