<?xml version="1.0" encoding="UTF-8"?>
<svg width="80px" height="80px" viewBox="0 0 80 80" version="1.1" xmlns="http://www.w3.org/2000/svg" xmlns:xlink="http://www.w3.org/1999/xlink">
    <title>Shape</title>
    <g id="Page-1" stroke="none" stroke-width="1" fill="none" fill-rule="evenodd">
        <g id="line.3.horizontal.decrease.circle" transform="translate(-1410.000000, -621.000000)" fill="#000000" fill-rule="nonzero">
            <g id="Symbols" transform="translate(498.889800, 618.802700)">
                <g id="Regular-S" transform="translate(911.526140, 2.539100)">
                    <path d="M39.40426,78.80859 C44.8079267,78.80859 49.88606,77.7832 54.63866,75.73242 C59.39126,73.68164 63.58236,70.8333333 67.21196,67.1875 C70.8414933,63.5416333 73.6897933,59.3424 75.75686,54.5898 C77.8239267,49.8372 78.85746,44.7753667 78.85746,39.4043 C78.85746,34.0332333 77.8239267,28.9713667 75.75686,24.2187 C73.6897933,19.4661 70.8333267,15.2669 67.18746,11.6211 C63.54166,7.97523333 59.34246,5.12693333 54.58986,3.0762 C49.83726,1.0254 44.7591267,0 39.35546,0 C33.9843933,0 28.92256,1.0254 24.16996,3.0762 C19.41736,5.12693333 15.2343933,7.97523333 11.62106,11.6211 C8.00779333,15.2669 5.16763333,19.4661 3.10058,24.2187 C1.03352667,28.9713667 -8.8817842e-16,34.0332333 -8.8817842e-16,39.4043 C-8.8817842e-16,44.7753667 1.03352667,49.8372 3.10058,54.5898 C5.16763333,59.3424 8.01592667,63.5416333 11.64546,67.1875 C15.27506,70.8333333 19.46616,73.68164 24.21876,75.73242 C28.97136,77.7832 34.0331933,78.80859 39.40426,78.80859 Z M39.40426,71.38672 C34.9771933,71.38672 30.83496,70.56478 26.97756,68.9209 C23.1200933,67.27702 19.73466,64.99022 16.82126,62.0605 C13.90786,59.1308333 11.6292267,55.7291667 9.98536,51.8555 C8.34149333,47.9817667 7.51956,43.8313667 7.51956,39.4043 C7.51956,34.9772333 8.33336,30.8268333 9.96096,26.9531 C11.58856,23.0794333 13.85906,19.6777333 16.77246,16.748 C19.68586,13.8183333 23.07126,11.5315667 26.92866,9.8877 C30.7861267,8.24383333 34.9283933,7.4219 39.35546,7.4219 C43.8151267,7.4219 47.97366,8.24383333 51.83106,9.8877 C55.68846,11.5315667 59.0820267,13.8183333 62.01176,16.748 C64.9414267,19.6777333 67.2363267,23.0794333 68.89646,26.9531 C70.55666,30.8268333 71.38676,34.9772333 71.38676,39.4043 C71.38676,43.8313667 70.5647933,47.9817667 68.92086,51.8555 C67.2769933,55.7291667 64.99836,59.1308333 62.08496,62.0605 C59.17156,64.99022 55.7779933,67.27702 51.90426,68.9209 C48.0305933,70.56478 43.8639267,71.38672 39.40426,71.38672 Z M18.79886,32.373 L60.10746,32.373 C61.0839933,32.373 61.8814933,32.0882 62.49996,31.5186 C63.1184933,30.9489333 63.42776,30.2083667 63.42776,29.2969 C63.42776,28.3854333 63.1184933,27.653 62.49996,27.0996 C61.8814933,26.5462 61.0839933,26.2695 60.10746,26.2695 L18.79886,26.2695 C17.85486,26.2695 17.0735933,26.5462 16.45506,27.0996 C15.8365933,27.653 15.52736,28.3854333 15.52736,29.2969 C15.52736,30.2083667 15.8365933,30.9489333 16.45506,31.5186 C17.0735933,32.0882 17.85486,32.373 18.79886,32.373 Z M24.51176,45.0684 L54.39456,45.0684 C55.3710933,45.0684 56.1685933,44.7835667 56.78706,44.2139 C57.4055933,43.6442333 57.71486,42.9036667 57.71486,41.9922 C57.71486,41.0807333 57.4055933,40.3401667 56.78706,39.7705 C56.1685933,39.2008333 55.3710933,38.916 54.39456,38.916 L24.51176,38.916 C23.5676933,38.916 22.7864267,39.2008333 22.16796,39.7705 C21.5494933,40.3401667 21.24026,41.0807333 21.24026,41.9922 C21.24026,42.9036667 21.5494933,43.6442333 22.16796,44.2139 C22.7864267,44.7835667 23.5676933,45.0684 24.51176,45.0684 Z M30.46876,57.7637 L48.48636,57.7637 C49.43036,57.7637 50.2115933,57.4788667 50.83006,56.9092 C51.4485933,56.3395333 51.75786,55.5989667 51.75786,54.6875 C51.75786,53.7760333 51.4485933,53.0354667 50.83006,52.4658 C50.2115933,51.8961333 49.43036,51.6113 48.48636,51.6113 L30.46876,51.6113 C29.49216,51.6113 28.70276,51.8961333 28.10056,52.4658 C27.49836,53.0354667 27.19726,53.7760333 27.19726,54.6875 C27.19726,55.5989667 27.49836,56.3395333 28.10056,56.9092 C28.70276,57.4788667 29.49216,57.7637 30.46876,57.7637 Z" id="Shape"></path>
                </g>
            </g>
        </g>
    </g>
</svg>